<?xml version="1.0" encoding="UTF-8"?>
<svg width="256px" height="256px" viewBox="0 0 256 256" version="1.1" xmlns="http://www.w3.org/2000/svg" xmlns:xlink="http://www.w3.org/1999/xlink">
    <title>logo copy</title>
    <g id="logo-copy" stroke="none" stroke-width="1" fill="none" fill-rule="evenodd">
        <path d="M131.995421,4.06620015 C165.092186,5.13404655 195.79764,19.032916 218.450007,43.1949173 C241.107646,67.3590269 252.999374,98.8947553 251.934168,131.99325 C250.868435,165.092272 236.97279,195.798917 212.805626,218.45613 C189.642002,240.175683 159.70238,252 128.10618,252 C126.742125,252 125.375436,251.977863 124.005584,251.933589 C90.9077645,250.865216 60.201784,236.968454 37.5441457,212.803291 C14.8901969,188.639181 3.00110354,157.103453 4.06578273,124.007593 C5.13046193,90.9090985 19.0245254,60.201399 43.1879996,37.542605 C67.3567444,14.8864463 98.8944396,2.99729961 131.995421,4.06620015 Z M127.902204,11.9063853 C98.3183533,11.9063853 70.2883017,22.9754091 48.5957266,43.3098189 C25.9728749,64.5239105 12.9648142,93.2735402 11.9675998,124.261642 C10.9709125,155.247635 22.1026079,184.772059 43.3118608,207.395539 C64.5248031,230.020601 93.2732497,243.031882 124.260685,244.031736 C125.541462,244.072848 126.824348,244.093931 128.099328,244.093931 C157.682652,244.093931 185.710068,233.02438 207.398426,212.688389 C230.024441,191.475352 243.03461,162.726776 244.032351,131.738148 C245.019593,101.060971 234.117741,71.8167941 213.316197,49.283438 L212.682292,48.6021415 L212.682292,48.6021415 C191.474093,25.9786613 162.728282,12.968434 131.74032,11.9680527 C130.459542,11.9269411 129.177184,11.9063853 127.902204,11.9063853 Z M125.884742,78.4283143 C136.738672,80.6472843 146.669705,86.4339998 153.784608,94.3911948 C160.556389,101.811304 164.65435,111.28014 165.444954,120.643034 C165.533501,121.688216 164.855163,122.646432 163.844245,122.927361 C162.907644,123.187734 161.907267,122.801391 161.399173,121.972835 C152.038429,106.704634 137.712169,97.8361327 122.860948,96.218551 C120.972987,95.8954563 119.044969,96.0314407 117.160171,95.8922938 C115.261142,96.0288053 113.368964,96.0314407 111.499451,96.3724558 C109.610436,96.5242523 107.776763,97.0413092 105.930441,97.4624392 C104.070414,97.9689547 102.174021,98.6841904 100.285533,99.2560627 C92.8991889,102.134399 86.2154281,106.702526 80.8061199,112.50558 C69.7592826,124.039481 64.8754621,140.842513 67.2472722,156.575591 C67.5851234,158.542094 68.041565,160.48646 68.4489893,162.455598 L70.3348418,168.373554 C71.8496379,172.22012 73.5056884,176.025575 75.6534942,179.574873 C79.8552876,186.708782 85.3747532,193.087399 91.8735128,198.302242 C104.859964,208.701358 121.663448,214.669386 138.605551,213.888267 C140.712772,213.781271 142.81156,213.490855 144.923526,213.316395 C147.039707,213.147732 149.087897,212.533167 151.182469,212.176866 C153.278095,211.870638 155.332609,211.067908 157.411369,210.465466 C159.465357,209.777111 161.637408,209.369685 163.599158,208.4257 C171.796134,205.44722 179.343761,200.921786 186.411755,195.755961 C193.400161,190.43096 199.439844,183.940077 204.835448,176.924758 C210.129856,169.80139 214.186705,161.797813 217.361768,153.437408 C220.498355,145.03273 222.170218,136.118373 222.900735,127.091224 C223.466807,118.57586 222.735236,109.99514 221.171949,101.485574 C221.001706,100.55951 221.558818,99.6545286 222.466431,99.4025885 C223.419371,99.1379987 224.413423,99.6845716 224.688553,100.634354 C227.173156,109.215074 228.942526,118.118889 229.128795,127.206125 C229.159152,136.848894 228.215171,146.629756 225.511308,156.044303 C222.705193,165.388222 218.845994,174.516043 213.52049,182.840606 C208.137008,191.094543 201.701497,198.758686 194.113286,205.221634 C178.84937,217.992044 160.199564,226.993894 139.529502,228.811763 C119.047077,230.492593 97.8763006,224.355902 81.4386026,211.665607 C64.9292231,199.028546 53.0706997,180.479854 49.1977974,159.519811 C45.5821047,138.31099 52.2041984,115.52728 66.9663445,99.7599428 C74.2372601,91.8164517 83.3365777,85.503192 93.3735509,81.5195873 C103.217617,77.5639174 115.129901,75.9421191 125.884742,78.4283143 Z M174.560768,50.3688317 C191.070675,63.0058926 202.929198,81.5545848 206.802628,102.515155 C210.417793,123.723449 203.796227,146.507686 189.033554,162.273969 C181.762111,170.217987 172.66332,176.531247 162.627401,180.515379 C152.782281,184.470522 140.869997,186.09232 130.115156,183.606125 C119.261753,181.387682 109.330193,175.600439 102.21529,167.643244 C95.4435087,160.223135 91.3455479,150.754299 90.5549445,141.391405 C90.4710573,140.401233 91.075455,139.489113 91.9988613,139.156978 L92.1556528,139.107078 C93.0917272,138.846705 94.092631,139.233048 94.6007255,140.061604 C103.961996,155.330332 118.287729,164.198306 133.13895,165.815888 C135.027438,166.13951 136.954929,166.002998 138.840254,166.142672 L139.552015,166.096811 L139.552015,166.096811 L140.972743,166.020505 C142.154834,165.956278 143.331804,165.875118 144.49992,165.661983 C146.389989,165.510714 148.223662,164.993657 150.069457,164.572 C151.929484,164.065484 153.825878,163.350249 155.714365,162.778376 C163.101236,159.900567 169.784997,155.33244 175.193778,149.528859 C186.240615,137.994958 191.124963,121.192453 188.753153,105.459375 C188.414775,103.492345 187.957806,101.547979 187.550909,99.5788411 L185.665056,93.6608849 C184.15026,89.8143187 182.494737,86.0099183 180.346404,82.4595662 C176.144611,75.3256565 170.625145,68.94704 164.126385,63.7321968 C151.139934,53.3330806 134.336451,47.3655796 117.394348,48.1461722 C116.551459,48.1889704 115.70992,48.2611159 114.868347,48.3434486 L112.342143,48.6018485 C111.920631,48.643622 111.498766,48.6831524 111.076372,48.7180445 C108.960191,48.8861802 106.912001,49.5012724 104.817956,49.8580997 C102.721803,50.163801 100.667289,50.9665305 98.5885288,51.568973 C96.5345413,52.2573281 94.3624903,52.6647542 92.4007398,53.6087388 C84.2037642,56.5872186 76.6561374,61.1126526 69.5886704,66.2795322 C62.5997367,71.6034792 56.560054,78.0943619 51.1649767,85.1102076 C45.8705695,92.2335759 41.8137201,100.237153 38.6381299,108.597031 C35.5015428,117.001709 33.8296803,125.916066 33.0991628,134.943215 C32.5336178,143.459106 33.2651895,152.039826 34.8279488,160.548865 C34.998192,161.475456 34.4410802,162.37991 33.5334675,162.63185 C32.580527,162.89644 31.586475,162.349867 31.311345,161.400085 C28.8272692,152.819892 27.0573719,143.91555 26.8710785,134.828314 C26.8402195,125.185545 27.7847269,115.404683 30.4885905,105.990136 C33.2947053,96.6462166 37.1539039,87.5183963 42.4799352,79.1943597 C47.86289,70.9398964 54.2984013,63.2757531 61.8860854,56.8128051 C77.1510551,44.0429223 95.8008614,35.041072 116.470396,33.2226761 C136.953348,31.5423729 158.124125,37.6790638 174.560768,50.3688317 Z M117.607547,119.933438 C123.731033,114.193632 133.344243,114.504077 139.08297,120.626009 C144.823277,126.747942 144.514415,136.360668 138.391455,142.101001 C132.269023,147.841335 122.65634,147.530362 116.916032,141.40843 C111.177306,135.286497 111.485642,125.674298 117.607547,119.933438 Z" id="Combined-Shape" fill="#000000"></path>
    </g>
</svg>